<svg width="663" height="726" viewBox="0 0 663 726" fill="none" xmlns="http://www.w3.org/2000/svg">
<path fill-rule="evenodd" clip-rule="evenodd" d="M315.498 7.30543C327 0.174583 331.867 -1.17987 338.675 0.868568C341.992 1.86696 361.05 13.1407 417.436 47.4656C430.989 55.7161 450.741 67.7263 461.329 74.1546C484.739 88.3695 535.994 120.426 554.896 132.675C558.921 135.283 568.965 141.7 577.222 146.934C644.826 189.781 654.046 195.809 657.404 199.343C664.109 206.395 663.574 188.528 661.223 320.666L660.997 500.581C660.994 502.84 660.501 505.073 659.54 507.117L659.006 508.249C657.911 510.578 655.658 513.654 654.002 515.084C652.336 516.52 619.619 538.546 581.294 564.035C542.964 589.529 473.541 635.81 427.02 666.88C372.289 703.433 341.16 723.76 338.838 724.477C334.752 725.737 328.98 725.296 325.417 723.454C324.16 722.803 318.233 719.07 312.249 715.152C306.263 711.232 297.905 705.762 293.669 703.002C289.433 700.241 271.926 688.705 254.773 677.364C237.619 666.021 213.139 649.834 200.374 641.395C179.931 627.881 176.63 625.954 172.654 625.217C164.494 623.706 151.029 632.496 134.59 643.314C99.5527 666.371 86.4466 675.024 52.7601 697.308C32.3284 710.823 15.4719 721.45 13.4833 722.078C12.5836 722.36 11.6848 722.569 10.792 722.707C4.11583 723.739 0.19802 716.669 0.19802 709.913V448.796L1.32021 417.735C1.44593 276.619 -0.593834 230.065 0.172841 213.222C0.513521 205.74 2.21067 205.654 8.53498 201.652C11.7844 199.596 15.8239 197.235 20.0918 194.545C36.2493 184.363 105.496 137.598 137.504 117.293C187.088 85.8384 218.574 66.3137 277.271 30.6357C293.784 20.5976 310.987 10.1025 315.498 7.30543ZM337.498 159.137C333.257 158.118 330.918 158.055 326.937 158.839C323.522 159.511 321.15 160.575 314.439 164.47C311.632 166.098 300.788 172.337 290.339 178.33C279.888 184.325 264.491 193.157 256.13 197.958C247.769 202.758 232.381 211.587 221.931 217.576C211.48 223.565 201.215 229.466 199.125 230.685C197.026 231.909 181.121 241.109 163.776 251.137C146.424 261.168 123.182 274.627 112.128 281.039C101.074 287.451 86.3619 295.967 79.4393 299.97C68.6813 306.189 66.5147 307.755 64.5069 310.707C62.438 313.749 62.1389 314.812 61.991 319.652C61.848 324.335 62.1053 325.655 63.7648 328.596C65.9359 332.446 64.6392 331.577 154.626 389.325C171.281 400.014 177.012 404.065 178.572 406.273C182.904 412.407 182.836 409.307 180.274 493.193C177.971 568.549 177.957 569.934 179.332 573.858C181.339 579.578 185.613 583.42 192.491 585.681C197.408 587.297 198.359 587.391 203.098 586.75C209.519 585.88 212.168 584.543 229.161 573.613C306.736 523.725 420.384 451.802 492.071 407.224C530.67 383.22 544.135 374.899 563.611 363.053C575.951 355.547 587.286 348.188 588.806 346.694C595.119 340.476 595.102 329.472 588.77 323.2C586.275 320.732 572.609 311.637 503.465 266.437C434.251 221.191 423.884 214.398 387.056 190.109C339.012 158.422 341.837 160.181 337.498 159.137Z" fill="#072766"/>
</svg>
